# xmcd
#
# Track frame offsets:
#	150
#	10704
#	22051
#	36051
#	51667
#	67659
#	84083
#	100175
#	118496
#	136612
#	156304
#	176030
#	196924
#	218657
#	243532
#
# Disc length: 3596 seconds
# Revision: 0
# Processed by: cddbd v1.5.1PL0 Copyright (c) Steve Scherf et al.
# Submitted via: cdrLabel 7.1
#
DISCID=c60e0a0f
DTITLE=Willie Nelson - songs
DYEAR=1900
DGENRE=
TTITLE0=Blue Eyes Crying in the Rain
TTITLE1=On the Road Again
TTITLE2=Fool Such as I
TTITLE3=Don't let your babies grow up to be cowboys
TTITLE4=Whiskey River
TTITLE5=To all the Girls I loved before
TTITLE6=Spanish Eyes
TTITLE7=Ghost Riders in the Sky
TTITLE8=Whiter Shade of Pale
TTITLE9=Sittin on top of the world
TTITLE10=Georgia on my Mind
TTITLE11=Bridge over Trouble Waters
TTITLE12=City of New Orleans
TTITLE13=How Time Slips Away
TTITLE14=Loving her was easier
EXTD=
EXTT0=
EXTT1=
EXTT2=
EXTT3=
EXTT4=
EXTT5=
EXTT6=
EXTT7=
EXTT8=
EXTT9=
EXTT10=
EXTT11=
EXTT12=
EXTT13=
EXTT14=
PLAYORDER=
